<svg xmlns="http://www.w3.org/2000/svg" width="32" height="32" viewBox="-5 -2 65 68">
  <path
    fill="#1a237e"
    d="M28.355 60.09c0 .6-.394 1.031-.907 1.324l-.012.007-.012.006c-.172.086-.438.141-.717.186a19.5 19.5 0 0 1-1.19.145h-.008l-.008.002c-.977.063-2.607.125-4.884.187h-.007c-2.245.031-5.38.078-9.403.14H2.329l-.027-.002a3.216 3.216 0 0 1-.417-.07 1.276 1.276 0 0 1-.309-.117c-.57-.27-1.076-.693-1.076-1.34 0-.247.092-.478.212-.678.062-.119.134-.235.223-.333.034-.05.074-.102.12-.149a.677.677 0 0 1 .13-.101.55.55 0 0 1 .283-.08h.021c.24-.033.627-.047 1.132-.047.531-.031 1.17-.063 1.914-.094h.102c1.276-.031 2.166-.093 2.69-.18h.005c.512-.081.787-.257.932-.453.221-.335.502-.887.838-1.681v-.004c1.671-3.877 5.621-10.785 11.826-20.7 2.186-3.56 4.402-7.01 6.651-10.352 2.25-3.374 5.418-7.963 9.505-13.766 1.34-1.93 2.475-3.595 3.408-4.995.467-.7.828-1.25 1.082-1.651.248-.39.372-.607.41-.687a1.12 1.12 0 0 0 .062-.332.507.507 0 0 0-.082-.306c-.049-.069-.139-.145-.306-.212a3.41 3.41 0 0 0-.321-.049c-.212-.022-.5-.041-.87-.057-.373-.015-.793-.03-1.26-.046l-1.541-.046a96.447 96.447 0 0 0-2.793-.047h-.02c-.767-.031-1.287-.063-1.512-.1l-.008-.002c-.41-.074-.785-.237-1.043-.546l-.017-.02-.015-.023c-.157-.234-.27-.502-.27-.792 0-.193.06-.367.153-.517a1.34 1.34 0 0 1 .42-.537c.14-.105.307-.164.46-.203.16-.04.344-.067.547-.084V.69a17.89 17.89 0 0 1 1.8-.142A84.66 84.66 0 0 1 38.57.5h12.305c.75 0 1.353.016 1.806.048.429 0 .776.015 1.025.05.22.032.415.068.555.115.142.047.274.121.388.225l.125.105c.288.257.53.585.53.986 0 .398-.2.736-.473 1.01a1.743 1.743 0 0 1-.44.315c-.194.116-.449.169-.686.199-.24.034-.615.067-1.114.098l-.016.001h-.015c-.49 0-1.155.015-1.994.046h-.003a47.017 47.017 0 0 0-2.592.14H47.949c-.357.016-.636.032-.84.047a6.321 6.321 0 0 0-.294.028c-.184.09-.492.352-.93.905-.453.575-1.16 1.589-2.126 3.054-.537.882-1.303 2.055-2.297 3.515a323.58 323.58 0 0 1-2.952 4.262v.001A610.433 610.433 0 0 0 23.693 37.81v-.001c-4.548 7.195-7.97 12.996-10.268 17.406-.59 1.18-.905 1.893-.99 2.187-.059.33-.08.513-.08.584 0 .19.043.303.106.378l.068.065.029.021.025.025a.87.87 0 0 0 .086.072c.092.018.22.04.39.062h9.043c1.545 0 2.732.012 3.558.036.412.011.74.026.98.044.119.01.224.02.31.033.05.007.141.023.23.056.283.1.53.21.72.336.172.115.399.31.45.614l.006.042v.322Z"
  />
</svg>
